<?xml version="1.0" encoding="UTF-8"?>
<!DOCTYPE svg PUBLIC "-//W3C//DTD SVG 1.1//EN" "http://www.w3.org/Graphics/SVG/1.1/DTD/svg11.dtd">
<svg xmlns="http://www.w3.org/2000/svg" version="1.1" width="320px" height="144px" style="shape-rendering:geometricPrecision; text-rendering:geometricPrecision; image-rendering:optimizeQuality; fill-rule:evenodd; clip-rule:evenodd" xmlns:xlink="http://www.w3.org/1999/xlink">
<g><path style="opacity:1" fill="#fefefe" d="M -0.5,-0.5 C 106.167,-0.5 212.833,-0.5 319.5,-0.5C 319.5,47.5 319.5,95.5 319.5,143.5C 212.833,143.5 106.167,143.5 -0.5,143.5C -0.5,95.5 -0.5,47.5 -0.5,-0.5 Z"/></g>
<g><path style="opacity:1" fill="#77c563" d="M 94.5,2.5 C 96.1667,2.5 97.8333,2.5 99.5,2.5C 100.292,14.4166 95.2922,22.9166 84.5,28C 80.3678,29.8997 76.0345,30.733 71.5,30.5C 72.6177,15.7212 80.2843,6.38791 94.5,2.5 Z"/></g>
<g><path style="opacity:1" fill="#74c35f" d="M 61.5,10.5 C 65.4994,10.0739 67.9994,11.7406 69,15.5C 69.3333,23.1667 69.6667,30.8333 70,38.5C 86.7595,27.8067 102.093,29.4734 116,43.5C 122.554,53.1386 125.388,63.8053 124.5,75.5C 124.369,94.2236 118.369,110.724 106.5,125C 98.5391,132.145 89.2058,136.312 78.5,137.5C 76.6107,137.564 74.9441,137.064 73.5,136C 79.9394,131.624 83.1061,125.457 83,117.5C 84.2152,103.985 83.2152,90.652 80,77.5C 77.815,67.6646 72.315,60.4979 63.5,56C 55.2718,54.2036 48.7718,56.7036 44,63.5C 42.2576,75.7476 47.4243,81.581 59.5,81C 61.229,79.2111 61.8957,77.0444 61.5,74.5C 62.8333,74.5 64.1667,74.5 65.5,74.5C 63.4593,81.6513 61.7927,88.9846 60.5,96.5C 60.596,100.192 61.9293,103.358 64.5,106C 54.4768,102.761 44.1435,100.595 33.5,99.5C 25.1454,99.6185 17.4787,101.952 10.5,106.5C 2.89427,89.2474 1.7276,71.5808 7,53.5C 19.0836,31.021 36.2503,26.021 58.5,38.5C 58.9455,29.0006 59.9455,19.6672 61.5,10.5 Z"/></g>
<g><path style="opacity:1" fill="#78c563" d="M 136.5,44.5 C 152.769,42.272 159.269,49.272 156,65.5C 152.535,75.2142 145.868,78.2142 136,74.5C 135.193,64.4229 135.36,54.4229 136.5,44.5 Z"/></g>
<g><path style="opacity:1" fill="#72c35d" d="M 183.5,44.5 C 185.167,44.5 186.833,44.5 188.5,44.5C 188.5,54.8333 188.5,65.1667 188.5,75.5C 186.833,75.5 185.167,75.5 183.5,75.5C 183.5,65.1667 183.5,54.8333 183.5,44.5 Z"/></g>
<g><path style="opacity:1" fill="#75c460" d="M 210.5,44.5 C 212.199,44.3398 213.866,44.5065 215.5,45C 216.708,47.2503 218.041,49.417 219.5,51.5C 220.959,49.417 222.292,47.2503 223.5,45C 225.5,44.3333 227.5,44.3333 229.5,45C 223.01,54.147 220.676,64.3137 222.5,75.5C 220.833,75.5 219.167,75.5 217.5,75.5C 217.666,69.8236 217.499,64.1569 217,58.5C 214.012,54.1915 211.845,49.5249 210.5,44.5 Z"/></g>
<g><path style="opacity:1" fill="#77c562" d="M 240.5,44.5 C 260.021,43.1399 266.188,51.8065 259,70.5C 257.457,72.3783 255.624,73.8783 253.5,75C 249.245,75.7961 245.079,75.6295 241,74.5C 240.5,64.5056 240.334,54.5056 240.5,44.5 Z"/></g>
<g><path style="opacity:1" fill="#73c35e" d="M 264.5,44.5 C 266.167,44.5 267.833,44.5 269.5,44.5C 269.5,54.8333 269.5,65.1667 269.5,75.5C 267.833,75.5 266.167,75.5 264.5,75.5C 264.5,65.1667 264.5,54.8333 264.5,44.5 Z"/></g>
<g><path style="opacity:1" fill="#77c562" d="M 273.5,44.5 C 279.176,44.3339 284.843,44.5006 290.5,45C 291.833,47 291.833,49 290.5,51C 287.183,51.4983 283.85,51.665 280.5,51.5C 280.5,52.8333 280.5,54.1667 280.5,55.5C 283.167,55.5 285.833,55.5 288.5,55.5C 288.5,57.1667 288.5,58.8333 288.5,60.5C 285.833,60.8333 283.167,61.1667 280.5,61.5C 280.5,64.1667 280.5,66.8333 280.5,69.5C 283.85,69.335 287.183,69.5017 290.5,70C 291.406,71.6995 291.739,73.5328 291.5,75.5C 285.5,75.5 279.5,75.5 273.5,75.5C 273.5,65.1667 273.5,54.8333 273.5,44.5 Z"/></g>
<g><path style="opacity:1" fill="#78c564" d="M 167.5,44.5 C 169.467,44.2606 171.301,44.5939 173,45.5C 176.225,55.3363 178.725,65.3363 180.5,75.5C 175.829,73.7573 170.829,72.7573 165.5,72.5C 165.5,73.5 165.5,74.5 165.5,75.5C 163.167,75.5 160.833,75.5 158.5,75.5C 160.509,64.8137 163.509,54.4804 167.5,44.5 Z"/></g>
<g><path style="opacity:1" fill="#78c564" d="M 192.5,44.5 C 194.5,44.5 196.5,44.5 198.5,44.5C 198.5,52.8333 198.5,61.1667 198.5,69.5C 201.167,69.5 203.833,69.5 206.5,69.5C 206.5,71.5 206.5,73.5 206.5,75.5C 201.833,75.5 197.167,75.5 192.5,75.5C 192.5,65.1667 192.5,54.8333 192.5,44.5 Z"/></g>
<g><path style="opacity:1" fill="#76c461" d="M 294.5,44.5 C 299.833,44.5 305.167,44.5 310.5,44.5C 310.5,46.5 310.5,48.5 310.5,50.5C 308.833,50.5 307.167,50.5 305.5,50.5C 304.815,58.8156 304.482,67.149 304.5,75.5C 302.833,75.5 301.167,75.5 299.5,75.5C 299.5,67.1667 299.5,58.8333 299.5,50.5C 297.833,50.5 296.167,50.5 294.5,50.5C 294.5,48.5 294.5,46.5 294.5,44.5 Z"/></g>
<g><path style="opacity:1" fill="#ecf6e8" d="M 101.5,37.5 C 114.117,47.7452 119.95,61.0785 119,77.5C 117.192,62.2344 111.359,48.9011 101.5,37.5 Z"/></g>
<g><path style="opacity:1" fill="#f8fcf7" d="M 142.5,51.5 C 147.892,51.8982 150.225,54.8982 149.5,60.5C 150.35,66.1931 148.017,68.8597 142.5,68.5C 142.5,62.8333 142.5,57.1667 142.5,51.5 Z"/></g>
<g><path style="opacity:1" fill="#fbfdfb" d="M 247.5,51.5 C 249.144,51.2865 250.644,51.6198 252,52.5C 254.814,57.0062 255.147,61.6729 253,66.5C 251.556,68.1554 249.722,68.822 247.5,68.5C 247.5,62.8333 247.5,57.1667 247.5,51.5 Z"/></g>
<g><path style="opacity:1" fill="#e4f3df" d="M 168.5,57.5 C 170.977,59.4159 171.977,62.0825 171.5,65.5C 170.167,65.5 168.833,65.5 167.5,65.5C 168.092,62.8728 168.425,60.2062 168.5,57.5 Z"/></g>
<g><path style="opacity:1" fill="#9f9f9f" d="M 217.5,90.5 C 221.182,90.3347 224.848,90.5014 228.5,91C 232.485,94.286 232.485,97.6193 228.5,101C 225.518,101.498 222.518,101.665 219.5,101.5C 219.813,104.247 219.48,106.914 218.5,109.5C 217.504,103.202 217.17,96.8682 217.5,90.5 Z"/></g>
<g><path style="opacity:1" fill="#a4a4a4" d="M 247.5,90.5 C 248.818,93.2575 249.485,96.4242 249.5,100C 249.167,103.167 248.833,106.333 248.5,109.5C 247.504,103.202 247.17,96.8682 247.5,90.5 Z"/></g>
<g><path style="opacity:1" fill="#f7f7f7" d="M 219.5,91.5 C 221.857,91.3367 224.19,91.5034 226.5,92C 230.037,93.8265 230.371,96.1598 227.5,99C 224.854,99.4974 222.187,99.6641 219.5,99.5C 219.5,96.8333 219.5,94.1667 219.5,91.5 Z"/></g>
<g><path style="opacity:1" fill="#a3a3a3" d="M 191.5,90.5 C 192.822,90.33 193.989,90.6634 195,91.5C 197.5,97.1667 200,102.833 202.5,108.5C 202.167,108.833 201.833,109.167 201.5,109.5C 200.05,108.345 199.05,106.845 198.5,105C 194.789,104.175 191.122,104.341 187.5,105.5C 186.917,107.002 186.084,108.335 185,109.5C 186.549,103.044 188.716,96.7105 191.5,90.5 Z"/></g>
<g><path style="opacity:1" fill="#f9f9f9" d="M 192.5,93.5 C 194.784,95.8904 196.45,98.7237 197.5,102C 194.773,102.818 192.106,102.652 189.5,101.5C 190.513,98.8122 191.513,96.1456 192.5,93.5 Z"/></g>
<g><path style="opacity:1" fill="#8bcd7a" d="M 27.5,103.5 C 38.6313,102.693 49.298,104.527 59.5,109C 50.81,107.283 41.9766,106.116 33,105.5C 28.5451,105.419 24.2118,106.085 20,107.5C 19.5,107.333 19,107.167 18.5,107C 21.5711,105.704 24.5711,104.538 27.5,103.5 Z"/></g>
</svg>
