<?xml version="1.0" encoding="UTF-8"?>
<!DOCTYPE svg PUBLIC "-//W3C//DTD SVG 1.1//EN" "http://www.w3.org/Graphics/SVG/1.1/DTD/svg11.dtd">
<svg xmlns="http://www.w3.org/2000/svg" version="1.1" width="320px" height="144px" style="shape-rendering:geometricPrecision; text-rendering:geometricPrecision; image-rendering:optimizeQuality; fill-rule:evenodd; clip-rule:evenodd" xmlns:xlink="http://www.w3.org/1999/xlink">
<g><path style="opacity:1" fill="#88c85e" d="M 95.5,18.5 C 89.9715,27.2643 81.9715,31.2643 71.5,30.5C 71.5997,19.6087 76.2664,11.6087 85.5,6.5C 89.8333,5.83333 94.1667,5.16667 98.5,4.5C 98.3227,9.35963 97.3227,14.0263 95.5,18.5 Z"/></g>
<g><path style="opacity:0.941" fill="#8dbc6d" d="M 95.5,18.5 C 97.3227,14.0263 98.3227,9.35963 98.5,4.5C 94.1667,5.16667 89.8333,5.83333 85.5,6.5C 89.9346,3.47282 94.9346,2.13948 100.5,2.5C 100.329,8.40485 98.6627,13.7382 95.5,18.5 Z"/></g>
<g><path style="opacity:1" fill="#87c95e" d="M 97.5,32.5 C 97.8333,32.5 98.1667,32.5 98.5,32.5C 97.828,33.2674 96.9947,33.9341 96,34.5C 95.2825,33.5494 94.4491,33.3828 93.5,34C 94.1667,35 94.8333,36 95.5,37C 97.3425,36.4212 99.3425,35.9212 101.5,35.5C 103.319,35.3422 104.652,36.0089 105.5,37.5C 102.027,38.87 98.694,40.5366 95.5,42.5C 91.5349,47.5401 92.5349,48.5401 98.5,45.5C 100.577,46.9371 102.91,47.6038 105.5,47.5C 105.794,51.3004 107.794,53.8004 111.5,55C 112,57.5212 113.333,59.3545 115.5,60.5C 115.796,62.403 116.463,64.0697 117.5,65.5C 117.5,67.1667 117.5,68.8333 117.5,70.5C 117.646,74.2387 117.313,78.0721 116.5,82C 117.385,84.1566 119.052,84.9899 121.5,84.5C 121.149,92.37 119.815,100.037 117.5,107.5C 116.258,111.655 114.258,115.322 111.5,118.5C 109.088,118.306 108.088,116.973 108.5,114.5C 107.5,114.5 106.5,114.5 105.5,114.5C 106.167,117.167 106.833,119.833 107.5,122.5C 105.084,122.961 103.25,124.294 102,126.5C 99.0847,124.92 98.2514,125.587 99.5,128.5C 94.776,131.191 90.1093,133.858 85.5,136.5C 85.1667,136.5 84.8333,136.5 84.5,136.5C 74.2361,136.566 73.9028,135.066 83.5,132C 82.8333,131.667 82.1667,131.333 81.5,131C 82.8905,129.98 84.3905,129.147 86,128.5C 86.4761,123.76 87.6427,119.26 89.5,115C 89.4907,113.596 88.9907,112.43 88,111.5C 87.5065,113.134 87.3398,114.801 87.5,116.5C 86.5,116.5 85.5,116.5 84.5,116.5C 84.6494,105.803 84.1494,95.1365 83,84.5C 82.3327,79.9738 80.8327,75.9738 78.5,72.5C 78.2962,69.4824 77.9629,66.4824 77.5,63.5C 76.5,63.5 75.5,63.5 74.5,63.5C 74.3962,60.9105 75.0629,58.5771 76.5,56.5C 73.7491,53.2516 71.7491,49.5849 70.5,45.5C 72.4672,45.2606 74.3005,45.5939 76,46.5C 76.9309,44.5405 77.7643,42.5405 78.5,40.5C 76.6652,39.5723 76.3318,38.4056 77.5,37C 79.5,36.6667 81.5,36.3333 83.5,36C 87.5627,32.965 92.2293,31.7984 97.5,32.5 Z"/></g>
<g><path style="opacity:1" fill="#88c95f" d="M 16.5,39.5 C 19.3229,40.2166 21.9896,41.2166 24.5,42.5C 24.5,43.5 24.5,44.5 24.5,45.5C 26.8273,45.7529 28.8273,45.0863 30.5,43.5C 34.9069,45.5362 39.5735,46.0362 44.5,45C 45.7717,43.6932 46.7717,42.1932 47.5,40.5C 48.7321,41.1445 50.0654,41.3112 51.5,41C 54.1667,42.3333 54.1667,43.6667 51.5,45C 46.0724,46.475 40.739,48.6417 35.5,51.5C 34.842,54.1555 34.1754,56.8222 33.5,59.5C 35.6574,63.166 37.324,67.166 38.5,71.5C 39.4776,71.0233 40.3109,70.3567 41,69.5C 40.8452,72.8403 40.3452,76.1736 39.5,79.5C 41.5922,79.4386 43.0922,78.4386 44,76.5C 46.139,78.806 47.639,81.4727 48.5,84.5C 49.4519,82.9547 49.7852,81.288 49.5,79.5C 53.7763,82.3649 57.7763,82.0315 61.5,78.5C 60.2266,75.7287 61.2266,74.062 64.5,73.5C 65.6474,75.7649 65.8141,78.0982 65,80.5C 63.0939,85.5512 61.5939,90.7179 60.5,96C 60.9339,100.535 62.9339,104.202 66.5,107C 60.6665,105.173 54.6665,103.506 48.5,102C 35.2225,98.8443 22.5558,100.344 10.5,106.5C 6.83523,99.6666 4.66856,92.3332 4,84.5C 1.67604,69.7879 4.3427,56.1213 12,43.5C 13.3712,41.9586 14.8712,40.6253 16.5,39.5 Z"/></g>
<g><path style="opacity:1" fill="#8ebf6e" d="M 153.5,47.5 C 151.485,48.8525 149.818,48.3525 148.5,46C 144.848,45.5014 141.182,45.3347 137.5,45.5C 136.64,55.1391 136.307,64.8057 136.5,74.5C 141.533,74.9816 146.366,74.3149 151,72.5C 151.765,72.5699 152.265,72.9033 152.5,73.5C 137.188,81.3484 131.521,76.8484 135.5,60C 135.833,54.8333 136.167,49.6667 136.5,44.5C 140.442,43.4001 144.442,43.2334 148.5,44C 150.584,44.6972 152.251,45.8639 153.5,47.5 Z"/></g>
<g><path style="opacity:1" fill="#88c860" d="M 97.5,32.5 C 92.2293,31.7984 87.5627,32.965 83.5,36C 81.5,36.3333 79.5,36.6667 77.5,37C 76.3318,38.4056 76.6652,39.5723 78.5,40.5C 77.7643,42.5405 76.9309,44.5405 76,46.5C 74.3005,45.5939 72.4672,45.2606 70.5,45.5C 71.7491,49.5849 73.7491,53.2516 76.5,56.5C 75.0629,58.5771 74.3962,60.9105 74.5,63.5C 75.5,63.5 76.5,63.5 77.5,63.5C 77.9629,66.4824 78.2962,69.4824 78.5,72.5C 75.3881,64.8874 70.0547,59.3874 62.5,56C 54.7164,54.5928 48.5497,57.0928 44,63.5C 42.9656,69.8991 44.7989,75.2324 49.5,79.5C 49.7852,81.288 49.4519,82.9547 48.5,84.5C 47.639,81.4727 46.139,78.806 44,76.5C 43.0922,78.4386 41.5922,79.4386 39.5,79.5C 40.3452,76.1736 40.8452,72.8403 41,69.5C 40.3109,70.3567 39.4776,71.0233 38.5,71.5C 37.324,67.166 35.6574,63.166 33.5,59.5C 34.1754,56.8222 34.842,54.1555 35.5,51.5C 40.739,48.6417 46.0724,46.475 51.5,45C 54.1667,43.6667 54.1667,42.3333 51.5,41C 50.0654,41.3112 48.7321,41.1445 47.5,40.5C 46.7717,42.1932 45.7717,43.6932 44.5,45C 39.5735,46.0362 34.9069,45.5362 30.5,43.5C 28.8273,45.0863 26.8273,45.7529 24.5,45.5C 24.5,44.5 24.5,43.5 24.5,42.5C 21.9896,41.2166 19.3229,40.2166 16.5,39.5C 25.1479,31.6851 35.1479,29.5184 46.5,33C 50.7561,34.8073 55.0894,36.3073 59.5,37.5C 59.3336,29.16 59.5003,20.8267 60,12.5C 63.3388,9.70056 66.3388,10.0339 69,13.5C 69.1684,21.5207 69.6684,29.5207 70.5,37.5C 75.3959,35.3682 80.3959,33.5349 85.5,32C 89.6888,31.1881 93.6888,31.3547 97.5,32.5 Z"/></g>
<g><path style="opacity:0.937" fill="#8fbc76" d="M 174.5,50.5 C 173.521,49.2347 172.521,47.9014 171.5,46.5C 170.311,45.5713 168.978,45.238 167.5,45.5C 167.448,48.3462 166.448,50.6796 164.5,52.5C 163.741,45.5917 166.741,42.925 173.5,44.5C 173.833,46.5 174.167,48.5 174.5,50.5 Z"/></g>
<g><path style="opacity:1" fill="#88c95f" d="M 294.5,44.5 C 300.167,44.5 305.833,44.5 311.5,44.5C 311.5,46.5 311.5,48.5 311.5,50.5C 309.5,50.5 307.5,50.5 305.5,50.5C 305.5,57.8333 305.5,65.1667 305.5,72.5C 303.883,73.038 302.216,73.3713 300.5,73.5C 300.5,65.5 300.5,57.5 300.5,49.5C 298.5,49.5 296.5,49.5 294.5,49.5C 294.5,47.8333 294.5,46.1667 294.5,44.5 Z"/></g>
<g><path style="opacity:1" fill="#88c760" d="M 251.5,75.5 C 248.482,75.6646 245.482,75.498 242.5,75C 241.901,73.3775 241.234,71.8775 240.5,70.5C 240.334,61.8269 240.5,53.1603 241,44.5C 258.525,41.4383 265.192,48.7716 261,66.5C 259.904,71.7649 256.737,74.7649 251.5,75.5 Z M 247.5,52.5 C 249.144,52.2865 250.644,52.6198 252,53.5C 255.516,58.9001 255.016,63.7335 250.5,68C 249.552,68.4828 248.552,68.6495 247.5,68.5C 247.5,63.1667 247.5,57.8333 247.5,52.5 Z"/></g>
<g><path style="opacity:1" fill="#89c761" d="M 223.5,57.5 C 222.335,62.6327 221.668,67.966 221.5,73.5C 220.5,73.5 219.5,73.5 218.5,73.5C 218.666,69.4862 218.499,65.4862 218,61.5C 217.768,60.2625 217.268,59.2625 216.5,58.5C 214.014,54.4902 211.681,50.3235 209.5,46C 209.862,44.1147 211.029,43.2814 213,43.5C 213.833,43.6667 214.667,43.8333 215.5,44C 217.123,46.0795 218.623,48.2462 220,50.5C 221.25,45.1906 224.416,43.5239 229.5,45.5C 227.454,49.5919 225.454,53.5919 223.5,57.5 Z"/></g>
<g><path style="opacity:0.927" fill="#8cbe6f" d="M 294.5,44.5 C 294.5,46.1667 294.5,47.8333 294.5,49.5C 296.5,49.5 298.5,49.5 300.5,49.5C 300.5,57.5 300.5,65.5 300.5,73.5C 302.216,73.3713 303.883,73.038 305.5,72.5C 304.925,76.4735 302.758,77.4735 299,75.5C 298.542,67.1571 298.709,58.8237 299.5,50.5C 297.5,50.5 295.5,50.5 293.5,50.5C 293.205,48.2646 293.539,46.2646 294.5,44.5 Z"/></g>
<g><path style="opacity:0.118" fill="#8bb373" d="M 189.5,46.5 C 187.621,45.6586 185.621,45.3253 183.5,45.5C 183.5,55.5 183.5,65.5 183.5,75.5C 185.167,75.5 186.833,75.5 188.5,75.5C 186.735,76.4614 184.735,76.7947 182.5,76.5C 182.168,65.8126 182.501,55.1459 183.5,44.5C 186.505,42.7413 188.505,43.4079 189.5,46.5 Z"/></g>
<g><path style="opacity:1" fill="#89c465" d="M 191.5,44.5 C 193.833,44.5 196.167,44.5 198.5,44.5C 198.5,52.8333 198.5,61.1667 198.5,69.5C 201.448,69.2229 204.281,69.5562 207,70.5C 207.743,72.4406 207.576,74.2739 206.5,76C 201.581,76.8015 196.748,76.6349 192,75.5C 191.5,65.172 191.334,54.8387 191.5,44.5 Z"/></g>
<g><path style="opacity:0.995" fill="#89c562" d="M 98.5,32.5 C 111.453,36.0749 119.62,44.4083 123,57.5C 126.172,69.155 126.172,80.8217 123,92.5C 121.913,97.8968 120.08,102.897 117.5,107.5C 119.815,100.037 121.149,92.37 121.5,84.5C 119.052,84.9899 117.385,84.1566 116.5,82C 117.313,78.0721 117.646,74.2387 117.5,70.5C 118.833,68.8333 118.833,67.1667 117.5,65.5C 117.39,60.1638 115.724,55.4971 112.5,51.5C 113.302,54.5738 114.302,57.5738 115.5,60.5C 113.333,59.3545 112,57.5212 111.5,55C 107.794,53.8004 105.794,51.3004 105.5,47.5C 102.91,47.6038 100.577,46.9371 98.5,45.5C 92.5349,48.5401 91.5349,47.5401 95.5,42.5C 98.694,40.5366 102.027,38.87 105.5,37.5C 104.652,36.0089 103.319,35.3422 101.5,35.5C 99.3425,35.9212 97.3425,36.4212 95.5,37C 94.8333,36 94.1667,35 93.5,34C 94.4491,33.3828 95.2825,33.5494 96,34.5C 96.9947,33.9341 97.828,33.2674 98.5,32.5 Z M 109.5,46.5 C 111.25,47.6594 112.25,49.326 112.5,51.5C 110.75,50.3406 109.75,48.674 109.5,46.5 Z"/></g>
<g><path style="opacity:1" fill="#87c560" d="M 189.5,46.5 C 189.827,56.3478 189.494,66.0144 188.5,75.5C 186.833,75.5 185.167,75.5 183.5,75.5C 183.5,65.5 183.5,55.5 183.5,45.5C 185.621,45.3253 187.621,45.6586 189.5,46.5 Z"/></g>
<g><path style="opacity:1" fill="#88c85f" d="M 174.5,50.5 C 177.204,58.4702 179.537,66.6369 181.5,75C 179.063,76.3747 176.397,76.8747 173.5,76.5C 173.845,73.512 172.512,72.1787 169.5,72.5C 167.176,74.1263 164.676,75.4596 162,76.5C 160.272,76.5463 158.772,76.0463 157.5,75C 159.463,67.2934 161.797,59.7934 164.5,52.5C 166.448,50.6796 167.448,48.3462 167.5,45.5C 168.978,45.238 170.311,45.5713 171.5,46.5C 172.521,47.9014 173.521,49.2347 174.5,50.5 Z M 169.5,59.5 C 170.234,60.8775 170.901,62.3775 171.5,64C 170.552,64.4828 169.552,64.6495 168.5,64.5C 168.629,62.7839 168.962,61.1172 169.5,59.5 Z"/></g>
<g><path style="opacity:1" fill="#8ac663" d="M 265.5,43.5 C 266.833,43.5 268.167,43.5 269.5,43.5C 270.131,54.5268 270.131,65.5268 269.5,76.5C 267.5,76.5 265.5,76.5 263.5,76.5C 262.891,65.2451 263.558,54.2451 265.5,43.5 Z"/></g>
<g><path style="opacity:0.988" fill="#88c860" d="M 291.5,74.5 C 285.833,74.5 280.167,74.5 274.5,74.5C 274.301,64.4726 274.634,54.4726 275.5,44.5C 280.926,43.2599 286.093,43.2599 291,44.5C 291.497,46.8098 291.663,49.1432 291.5,51.5C 288.15,51.335 284.817,51.5017 281.5,52C 280.663,53.0113 280.33,54.1779 280.5,55.5C 283.187,55.3359 285.854,55.5026 288.5,56C 289.833,57.6667 289.833,59.3333 288.5,61C 285.905,61.2256 283.405,61.7256 281,62.5C 280.503,64.8098 280.337,67.1432 280.5,69.5C 284.167,69.5 287.833,69.5 291.5,69.5C 292.096,71.398 292.096,73.0646 291.5,74.5 Z"/></g>
<g><path style="opacity:1" fill="#89c760" d="M 153.5,47.5 C 154.79,48.0577 155.623,49.0577 156,50.5C 158.488,58.8658 157.321,66.5325 152.5,73.5C 152.265,72.9033 151.765,72.5699 151,72.5C 146.366,74.3149 141.533,74.9816 136.5,74.5C 136.307,64.8057 136.64,55.1391 137.5,45.5C 141.182,45.3347 144.848,45.5014 148.5,46C 149.818,48.3525 151.485,48.8525 153.5,47.5 Z M 143.5,52.5 C 145.39,52.2965 146.89,52.9632 148,54.5C 149.793,58.5484 149.793,62.5484 148,66.5C 146.915,67.2931 145.748,67.9598 144.5,68.5C 143.505,63.2079 143.172,57.8746 143.5,52.5 Z"/></g>
<g><path style="opacity:1" fill="#8bbd6e" d="M 223.5,57.5 C 223.666,63.5092 223.499,69.5092 223,75.5C 221,76.8333 219,76.8333 217,75.5C 216.501,69.8431 216.334,64.1764 216.5,58.5C 217.268,59.2625 217.768,60.2625 218,61.5C 218.499,65.4862 218.666,69.4862 218.5,73.5C 219.5,73.5 220.5,73.5 221.5,73.5C 221.668,67.966 222.335,62.6327 223.5,57.5 Z"/></g>
<g><path style="opacity:1" fill="#8abf6b" d="M 275.5,44.5 C 274.634,54.4726 274.301,64.4726 274.5,74.5C 280.167,74.5 285.833,74.5 291.5,74.5C 288.913,75.8164 285.913,76.483 282.5,76.5C 279.248,76.4793 276.081,76.146 273,75.5C 272.848,68.6756 273.015,61.8423 273.5,55C 273.512,51.0982 274.179,47.5982 275.5,44.5 Z"/></g>
<g><path style="opacity:0.122" fill="#8ead73" d="M 240.5,70.5 C 241.234,71.8775 241.901,73.3775 242.5,75C 245.482,75.498 248.482,75.6646 251.5,75.5C 248.36,76.6408 245.027,76.8075 241.5,76C 240.594,74.3005 240.261,72.4672 240.5,70.5 Z"/></g>
<g><path style="opacity:0.613" fill="#959796" d="M 246.5,89.5 C 247.5,89.5 248.5,89.5 249.5,89.5C 249.96,96.6767 249.46,103.677 248,110.5C 246.54,103.677 246.04,96.6767 246.5,89.5 Z"/></g>
<g><path style="opacity:0.521" fill="#919291" d="M 217.5,89.5 C 220.85,89.335 224.183,89.5017 227.5,90C 231.292,92.0527 232.458,95.2194 231,99.5C 227.888,101.655 224.388,102.655 220.5,102.5C 220.663,104.857 220.497,107.19 220,109.5C 219,110.833 218,110.833 217,109.5C 216.208,102.753 216.374,96.0859 217.5,89.5 Z M 220.5,92.5 C 222.527,92.3379 224.527,92.5045 226.5,93C 229.033,94.916 229.033,96.916 226.5,99C 224.527,99.4955 222.527,99.6621 220.5,99.5C 220.5,97.1667 220.5,94.8333 220.5,92.5 Z"/></g>
<g><path style="opacity:0.443" fill="#929493" d="M 191.5,89.5 C 192.822,89.33 193.989,89.6634 195,90.5C 198.074,96.6411 200.574,102.974 202.5,109.5C 200.41,109.55 199.077,108.55 198.5,106.5C 195.216,105.343 191.882,105.176 188.5,106C 187.696,107.771 186.529,109.271 185,110.5C 184.667,110.167 184.333,109.833 184,109.5C 186.166,102.812 188.666,96.1457 191.5,89.5 Z M 192.5,94.5 C 194.19,96.5038 195.524,98.8371 196.5,101.5C 194.235,102.647 191.902,102.814 189.5,102C 191.202,99.7646 192.202,97.2646 192.5,94.5 Z"/></g>
<g><path style="opacity:0.967" fill="#8bb871" d="M 59.5,109.5 C 51.2637,107.653 42.9303,106.32 34.5,105.5C 28.1123,106.389 21.7789,107.223 15.5,108C 24.3615,103.726 33.6949,102.392 43.5,104C 49.2462,104.97 54.5795,106.803 59.5,109.5 Z"/></g>
<g><path style="opacity:0.196" fill="#a799ac" d="M 59.5,109.5 C 60.8333,110.167 60.8333,110.167 59.5,109.5 Z"/></g>
<g><path style="opacity:1" fill="#8bc567" d="M 78.5,72.5 C 80.8327,75.9738 82.3327,79.9738 83,84.5C 84.1494,95.1365 84.6494,105.803 84.5,116.5C 85.5,116.5 86.5,116.5 87.5,116.5C 87.3398,114.801 87.5065,113.134 88,111.5C 88.9907,112.43 89.4907,113.596 89.5,115C 87.6427,119.26 86.4761,123.76 86,128.5C 84.3905,129.147 82.8905,129.98 81.5,131C 82.1667,131.333 82.8333,131.667 83.5,132C 73.9028,135.066 74.2361,136.566 84.5,136.5C 82.866,137.161 81.0326,137.494 79,137.5C 76.6253,137.596 74.4587,137.096 72.5,136C 80.4938,131.154 83.9938,123.987 83,114.5C 83.8784,100.239 82.3784,86.239 78.5,72.5 Z"/></g>
<g><path style="opacity:1" fill="#8bc168" d="M 111.5,118.5 C 105.277,127.951 96.6107,133.951 85.5,136.5C 90.1093,133.858 94.776,131.191 99.5,128.5C 98.2514,125.587 99.0847,124.92 102,126.5C 103.25,124.294 105.084,122.961 107.5,122.5C 106.833,119.833 106.167,117.167 105.5,114.5C 106.5,114.5 107.5,114.5 108.5,114.5C 108.088,116.973 109.088,118.306 111.5,118.5 Z"/></g>
</svg>
